<svg id="Camada_1" data-name="Camada 1" xmlns="http://www.w3.org/2000/svg" viewBox="0 0 2017.46 797.43"><defs><style>.cls-1{fill:#00c6ff;}.cls-2{fill:#ff8400;}.cls-3{fill:#37bb00;}.cls-4{stroke:#000;}.cls-4,.cls-5{stroke-miterlimit:10;}.cls-5{fill:#f70;stroke:#f70;stroke-width:20px;}</style></defs><path class="cls-1" d="M550.69,515.59V353.42c0-102.54,54.42-151.25,100.07-174.06,48.49-24.23,96.45-24.48,98.47-24.48h156V330c0,95.81-50.91,141.37-93.62,162.73-45.3,22.65-90.14,22.91-92,22.91Zm277.54-282.7H742.46c-.29,0-29.78.25-58.52,14.82-37.31,18.9-56.22,52.52-56.22,99.92v89.95h94.56c.25,0,27.55-.26,54.12-13.75,34.39-17.45,51.83-48.47,51.83-92.2Z" transform="translate(-182.89 -154.88)"/><path class="cls-2" d="M543.59,515.59H381.42c-102.54,0-151.25-54.42-174.06-100.07-24.23-48.49-24.47-96.46-24.47-98.47V161H358c95.81,0,141.38,50.91,162.73,93.62,22.65,45.3,22.91,90.13,22.91,92ZM260.89,238.05v85.77c0,.29.26,29.78,14.82,58.52,18.9,37.3,52.52,56.22,99.92,56.22h89.95V344c0-.25-.26-27.55-13.74-54.12-17.46-34.39-48.48-51.83-92.2-51.83Z" transform="translate(-182.89 -154.88)"/><path class="cls-3" d="M543.59,522.69V684.86c0,102.54-54.42,151.25-100.07,174.06-48.49,24.23-96.45,24.47-98.47,24.47H189V708.33c0-95.81,50.91-141.38,93.62-162.73,45.3-22.65,90.14-22.91,92-22.91ZM266.05,805.38h85.77c.29,0,29.78-.25,58.52-14.81,37.31-18.9,56.22-52.52,56.22-99.92v-90H372c-.25,0-27.55.26-54.12,13.75-34.39,17.46-51.83,48.48-51.83,92.2Z" transform="translate(-182.89 -154.88)"/><path class="cls-4" d="M1681.69,932.6h-8.38l30.85-70.18h7.1l30.85,70.18h-8.28l-27.5-64.26h3Zm4.73-18,2.86-6.7h36.86l2.86,6.7Z" transform="translate(-182.89 -154.88)"/><path class="cls-4" d="M1772.36,933.29a24.22,24.22,0,0,1-12.61-3.16,21.26,21.26,0,0,1-8.23-8.87,29.4,29.4,0,0,1-2.91-13.5,29.74,29.74,0,0,1,3-13.55,21.86,21.86,0,0,1,8.37-9.12,24.45,24.45,0,0,1,12.82-3.25,27.91,27.91,0,0,1,9.71,1.72,21,21,0,0,1,7.73,4.78l-2.66,5.92a30,30,0,0,0-7.14-4.29,19.08,19.08,0,0,0-7.25-1.43q-7.49,0-11.87,5t-4.39,14.19q0,9.07,4.34,14t11.92,4.92a19,19,0,0,0,7.2-1.43,30,30,0,0,0,7.19-4.28l2.66,5.91a22.62,22.62,0,0,1-7.93,4.68A29,29,0,0,1,1772.36,933.29Zm-.59,18.53a24.89,24.89,0,0,1-4.43-.45,14.67,14.67,0,0,1-4.34-1.43l1.28-4.33a20.67,20.67,0,0,0,3.89,1.08,22.23,22.23,0,0,0,3.6.3,7.46,7.46,0,0,0,4.14-.94,2.89,2.89,0,0,0,1.38-2.51c0-1.78-1.15-2.66-3.45-2.66a11.59,11.59,0,0,0-2.41.24,13.87,13.87,0,0,0-2.12.64l-2-1.57,1.08-9.56H1774l-.79,7.19-2.46-.2a14.73,14.73,0,0,1,2.51-.73,11.89,11.89,0,0,1,2.41-.25,8.9,8.9,0,0,1,5.23,1.67,6,6,0,0,1,2.36,5.23,7.25,7.25,0,0,1-3,5.91Q1777.29,951.82,1771.77,951.82Z" transform="translate(-182.89 -154.88)"/><path class="cls-4" d="M1819.38,933.29a21.38,21.38,0,0,1-11.58-3.11,20.27,20.27,0,0,1-7.69-8.87,35.06,35.06,0,0,1,.05-27.15,21.66,21.66,0,0,1,7.73-9.07,20.52,20.52,0,0,1,11.49-3.25,19.48,19.48,0,0,1,11.53,3.35,16.5,16.5,0,0,1,6.4,9.56l-1.18.79V883H1844V932.6h-7.89V919.78l1.18.6a16.53,16.53,0,0,1-6.4,9.56A19.48,19.48,0,0,1,1819.38,933.29Zm1.57-6.61q7.29,0,11.24-5t3.94-14.15q0-9.16-4-14.09T1821,888.54q-7.29,0-11.38,5.08t-4.09,14.14q0,9.07,4.09,14T1821,926.68ZM1806.27,872q0-5.41,2.46-8.37a7.92,7.92,0,0,1,6.41-3,10.52,10.52,0,0,1,5.27,1.43c1.68.95,3.25,1.9,4.73,2.86a7.69,7.69,0,0,0,4.09,1.42,4,4,0,0,0,3.45-1.62,6.29,6.29,0,0,0,1.18-3.8h4.44q0,5.43-2.46,8.38a8,8,0,0,1-6.41,3,10.52,10.52,0,0,1-5.27-1.43c-1.68-1-3.26-1.91-4.73-2.86a7.74,7.74,0,0,0-4.09-1.43,3.93,3.93,0,0,0-3.45,1.68,6.33,6.33,0,0,0-1.19,3.74Z" transform="translate(-182.89 -154.88)"/><path class="cls-4" d="M1880,933.29a23.59,23.59,0,0,1-12.37-3.16,21.24,21.24,0,0,1-8.18-8.92,33.35,33.35,0,0,1,0-27.25,21.31,21.31,0,0,1,8.18-9,25.86,25.86,0,0,1,24.74,0,21.38,21.38,0,0,1,8.18,9,33.35,33.35,0,0,1,0,27.25,21.3,21.3,0,0,1-8.18,8.92A23.59,23.59,0,0,1,1880,933.29Zm0-6.61q7.29,0,11.29-4.87t4-14.25q0-9.16-4-14.09T1880,888.54q-7.2,0-11.28,4.93t-4.1,14.09q0,9.38,4,14.25T1880,926.68Z" transform="translate(-182.89 -154.88)"/><path class="cls-4" d="M1964.85,933.39a52.5,52.5,0,0,1-10.15-.94,34.07,34.07,0,0,1-8.77-3,31.89,31.89,0,0,1-7.3-5l3.06-6.21a34.67,34.67,0,0,0,10.69,6.3,38.14,38.14,0,0,0,12.57,1.88q8.37,0,13-3.3a10.78,10.78,0,0,0,4.63-9.32,7.72,7.72,0,0,0-2.32-5.86,16.5,16.5,0,0,0-6.3-3.55q-4-1.34-9-2.51c-3.35-.73-6.54-1.56-9.56-2.52a35.13,35.13,0,0,1-8-3.6,16,16,0,0,1-5.47-5.51,16.37,16.37,0,0,1-2-8.38,18.2,18.2,0,0,1,3.16-10.6,20.8,20.8,0,0,1,8.87-7.14,32.75,32.75,0,0,1,13.5-2.57,40.71,40.71,0,0,1,9.27,1,35.51,35.51,0,0,1,8.23,3,29.15,29.15,0,0,1,6.75,4.83l-3.16,6.21a33.6,33.6,0,0,0-10-6.21,30.88,30.88,0,0,0-11.14-2q-8.18,0-12.81,3.45a11.35,11.35,0,0,0-4.64,9.66,9.15,9.15,0,0,0,2.07,6.21,14.39,14.39,0,0,0,5.82,3.8,73.59,73.59,0,0,0,8.57,2.61q5.13,1.18,9.86,2.56a42,42,0,0,1,8.43,3.4,16.51,16.51,0,0,1,5.86,5.22,14.19,14.19,0,0,1,2.17,8.13,17.56,17.56,0,0,1-3.15,10.45,20.51,20.51,0,0,1-9,6.9A35.11,35.11,0,0,1,1964.85,933.39Z" transform="translate(-182.89 -154.88)"/><path class="cls-4" d="M2023.49,933.29a23.59,23.59,0,0,1-12.37-3.16,21.3,21.3,0,0,1-8.18-8.92,33.35,33.35,0,0,1,0-27.25,21.38,21.38,0,0,1,8.18-9,25.86,25.86,0,0,1,24.74,0,21.31,21.31,0,0,1,8.18,9,33.35,33.35,0,0,1,0,27.25,21.24,21.24,0,0,1-8.18,8.92A23.56,23.56,0,0,1,2023.49,933.29Zm0-6.61q7.29,0,11.29-4.87t4-14.25q0-9.16-4-14.09t-11.24-4.93q-7.2,0-11.28,4.93t-4.09,14.09q0,9.38,4,14.25T2023.49,926.68Z" transform="translate(-182.89 -154.88)"/><path class="cls-4" d="M2080.16,933.29a24.22,24.22,0,0,1-12.61-3.16,21.26,21.26,0,0,1-8.23-8.87,29.4,29.4,0,0,1-2.91-13.5,29.74,29.74,0,0,1,3-13.55,21.86,21.86,0,0,1,8.37-9.12,24.45,24.45,0,0,1,12.82-3.25,27.91,27.91,0,0,1,9.71,1.72,21,21,0,0,1,7.73,4.78l-2.66,5.92a30,30,0,0,0-7.14-4.29,19.08,19.08,0,0,0-7.25-1.43q-7.48,0-11.87,5t-4.39,14.19q0,9.07,4.34,14t11.92,4.92a19,19,0,0,0,7.2-1.43,30,30,0,0,0,7.19-4.28l2.66,5.91a22.62,22.62,0,0,1-7.93,4.68A29,29,0,0,1,2080.16,933.29Z" transform="translate(-182.89 -154.88)"/><path class="cls-4" d="M2107.37,862h9.75v9.07h-9.75Zm.78,70.57V883h8V932.6Z" transform="translate(-182.89 -154.88)"/><path class="cls-4" d="M2150.63,933.29a21.43,21.43,0,0,1-11.58-3.11,20.34,20.34,0,0,1-7.69-8.87,35.06,35.06,0,0,1,0-27.15,21.61,21.61,0,0,1,7.74-9.07,20.51,20.51,0,0,1,11.48-3.25,19.44,19.44,0,0,1,11.53,3.35,16.52,16.52,0,0,1,6.41,9.56l-1.18.79V883h7.88V932.6h-7.88V919.78l1.18.6a16.55,16.55,0,0,1-6.41,9.56A19.44,19.44,0,0,1,2150.63,933.29Zm1.58-6.61q7.29,0,11.24-5t3.94-14.15q0-9.16-4-14.09t-11.19-4.93q-7.29,0-11.38,5.08t-4.09,14.14q0,9.07,4.09,14T2152.21,926.68Z" transform="translate(-182.89 -154.88)"/><path class="cls-4" d="M2190.75,932.6V860.06h8V932.6Z" transform="translate(-182.89 -154.88)"/><path class="cls-5" d="M723.78,577.11v16.62a3.24,3.24,0,0,1-3.49,3.48H621.94v60h84.42a3.24,3.24,0,0,1,3.48,3.49v16.61a3.24,3.24,0,0,1-3.48,3.49H621.94v74.23a3.24,3.24,0,0,1-3.49,3.49H600.23a3.24,3.24,0,0,1-3.48-3.49V577.11a3.24,3.24,0,0,1,3.48-3.48H720.29A3.24,3.24,0,0,1,723.78,577.11Z" transform="translate(-182.89 -154.88)"/><path class="cls-5" d="M783.54,577.11V735h95.67a3.24,3.24,0,0,1,3.49,3.49v16.61a3.24,3.24,0,0,1-3.49,3.49H761.83a3.24,3.24,0,0,1-3.48-3.49V577.11a3.24,3.24,0,0,1,3.48-3.48h18.22A3.24,3.24,0,0,1,783.54,577.11Z" transform="translate(-182.89 -154.88)"/><path class="cls-5" d="M896.63,665.29c0-52.53,42.88-95.41,96.21-95.41s96.21,42.88,96.21,95.41c0,55.47-42.88,97-96.21,97S896.63,720.76,896.63,665.29Zm166.15,0c0-39.67-29.47-70.76-69.94-70.76s-70,31.09-70,70.76c0,42.34,29.48,72.35,70,72.35S1062.78,707.63,1062.78,665.29Z" transform="translate(-182.89 -154.88)"/><path class="cls-5" d="M1274.23,758.55h-24.66a5.24,5.24,0,0,1-4.29-2.15l-53.33-71h-30.81v69.68a3.25,3.25,0,0,1-3.49,3.49h-18.22a3.24,3.24,0,0,1-3.49-3.49V577.11a3.24,3.24,0,0,1,3.49-3.48H1207c40.2,0,63,23.58,63,55.74,0,27.61-16.88,49.31-47.43,54.67l53.86,70.22C1278,756.4,1277.18,758.55,1274.23,758.55ZM1161.14,597.21v65.13h44.21c24.66,0,38.59-13.4,38.59-32.7,0-19.56-13.93-32.43-38.59-32.43Z" transform="translate(-182.89 -154.88)"/><path class="cls-5" d="M2187.39,758.55h-24.65a5.21,5.21,0,0,1-4.29-2.15l-53.33-71H2074.3v69.68a3.24,3.24,0,0,1-3.49,3.49h-18.22a3.24,3.24,0,0,1-3.48-3.49V577.11a3.24,3.24,0,0,1,3.48-3.48h67.54c40.19,0,63,23.58,63,55.74,0,27.61-16.88,49.31-47.43,54.67l53.86,70.22C2191.14,756.4,2190.34,758.55,2187.39,758.55ZM2074.3,597.21v65.13h44.22c24.65,0,38.59-13.4,38.59-32.7,0-19.56-13.94-32.43-38.59-32.43Z" transform="translate(-182.89 -154.88)"/><path class="cls-5" d="M1445.74,577.11v16.62a3.24,3.24,0,0,1-3.48,3.48h-98.62v58.43h84.95a3.24,3.24,0,0,1,3.48,3.48v15.81a3.24,3.24,0,0,1-3.48,3.49h-84.95V735h98.62a3.24,3.24,0,0,1,3.48,3.49v16.61a3.24,3.24,0,0,1-3.48,3.49H1321.93a3.25,3.25,0,0,1-3.49-3.49V577.11a3.24,3.24,0,0,1,3.49-3.48h120.33A3.24,3.24,0,0,1,1445.74,577.11Z" transform="translate(-182.89 -154.88)"/><path class="cls-5" d="M1473.88,728c-1.34-1.88-1.07-3.22.53-4.83l13.94-12.33c1.88-1.6,3.48-1.34,4.82.81,12.6,20.9,34.57,27.33,57.89,27.33,23.85,0,46.09-7,46.09-31.35,0-21.44-14.73-28.68-51.45-33.23-39.4-5.36-65.12-19.84-65.12-53.87,0-30,26.26-50.38,68.07-50.38,24.12,0,48.5,7.77,66.73,28.14,1.34,1.87,1.34,3.75-.27,5.09l-13.4,12.06a3,3,0,0,1-4.82-.27c-12.87-14.74-29.22-21.71-48.78-21.71-25.73,0-43.15,9.11-43.15,26.53,0,18.23,13.67,25.46,50.12,29.75,38.86,4.56,66.73,18.23,66.73,56.82,0,35.64-28.41,55.74-70.75,55.74C1520,762.3,1491.57,752.65,1473.88,728Z" transform="translate(-182.89 -154.88)"/><path class="cls-5" d="M1816.91,705.48l14.2,11c1.61,1.34,2.14,3.22.8,4.83-17.68,26-45.82,41-78,41-53.6,0-95.94-41.54-95.94-97a95.39,95.39,0,0,1,95.94-95.41c30.55,0,56.81,11.79,74.77,33.5,1.34,1.87,1.34,3.21-.27,4.82l-13.94,12.33c-1.6,1.61-3.48,1.34-4.82-.54-13.4-17.15-32.43-25.46-55.74-25.46-40.2,0-70,31.36-70,70.76,0,42.07,29.75,72.35,70,72.35,24.65,0,45.83-11.25,58.15-31.35C1813.42,704.14,1815,703.88,1816.91,705.48Z" transform="translate(-182.89 -154.88)"/><path class="cls-5" d="M2001,577.11v16.62a3.24,3.24,0,0,1-3.49,3.48h-98.62v58.43h85a3.24,3.24,0,0,1,3.48,3.48v15.81a3.24,3.24,0,0,1-3.48,3.49h-85V735h98.62a3.24,3.24,0,0,1,3.49,3.49v16.61a3.24,3.24,0,0,1-3.49,3.49H1877.2a3.24,3.24,0,0,1-3.48-3.49V577.11a3.24,3.24,0,0,1,3.48-3.48h120.33A3.24,3.24,0,0,1,2001,577.11Z" transform="translate(-182.89 -154.88)"/></svg>